<?xml version="1.0" encoding="UTF-8"?>
<svg id="Livello_4" data-name="Livello 4" xmlns="http://www.w3.org/2000/svg" viewBox="0 0 20 20">
  <defs>
    <style>
      .cls-1 {
        fill: #f2d154;
      }
    </style>
  </defs>
  <path class="cls-1" d="M6.2,9.21c.92,2.22,3.71,3.29,5.49,1.25s-.73-4.37-2.81-4.87-4.19,1.34-2.78,3.52c.5.78,1.01.89,1.83.63.36-.11.87-.53,1.14-.79-.02.02-.14-.49-.53.09-.24.37-.46.84-.62,1.26-1.02,2.53.92,4.04,3.46,3.24s4.28-4.14,3.28-6.58c-1.06-2.58-4.43-5.04-7.31-4.06s-3.98,5.22-3.03,7.89c2.61,7.33,13.5,1.41,9.75-5.6-3.43-6.42-9.72,2.4-8.9,6.67.51,2.67,3.65,2.65,5.66,1.63,1.24-.63,4.64-5.01,1.71-5.53-.88-.16-1.59.81-2.11,1.36s-1.54,2.02-2.32,2.04c-.44,0-1.53-1.55-1.59-1.83-.13-.56.15-1.56.43-2.02.5-.82.55-.75,1.55-1.07l1.03-.34c2.21,1.5,2.55,2.61,1.02,3.34l-.71.5c-.25-.43-.44-.89-.56-1.37-.15-.49-.27-1.08-.3-1.57-.02-.27-.11-1.04.03-1.21-.2.23-.72-.08.16.33.77.35,1.49,1.2,2.04,1.84,2.07,2.4,3.29,6.34-1.26,6.63-3.48.22-5.05-2.26-4.73-5.45.34-3.39,3.91-8.21,7.38-4.12,2.64,3.12-.46,10.17-4.99,8.49-1.73-.64-2.27-2.85-2.25-4.46.03-2.25,1.35-4.09,3.53-4.74,3.75-1.11,8.86,1.71,7.55,6.24-.65,2.26-3.3,3.68-5.42,4.22-2.65.67-4.82-.03-6.19-2.49-1.61-2.89-.82-6.61,2.13-8.22,1.02-.56.32-2.38-.81-1.93C2.88,3.42.6,6.21,1.42,9.85c.94,4.22,4.5,8.42,9.13,7.65,4.02-.67,8.5-3.95,8.1-8.45-.36-4.05-4.25-7.18-8.21-7.09-7.4.18-9.91,13.99-1.76,13.59,8.62-.42,9.39-15.5.15-13.39C2.82,3.54.49,15.06,7.53,16.6c2.75.6,6.79-.79,7.22-3.92.4-2.86-2.03-6.04-4.23-7.6-4.94-3.51-3.82,7.66.15,6.82,3.47-.74,3.53-5.93.82-7.48s-5.81.26-6.79,2.97.81,6.68,3.93,4.86c.83-.49,1.52-1.27,2.29-1.85.24-.18.58-.51.85-.6.44-.19.5-.26.18-.21-.72-.02-1.1.52-1.13,1.63-1.05,1.02-3.44,1.76-3.81-.07-.21-1.03.45-2.6.85-3.51s1.14-2.48,2.13-2.86c3.24-1.25,3.97,4.67,2.41,6.38-3.6,3.96-8.68-1.13-6.36-5.3,2.72-4.88,10.57,1.5,6.6,5.54-.92.94-3.65,1.37-3.53-.45.05-.71.69-1.29.87-1.96.12-.44.33-.69.19-1.17-.08-.25-.33-.47-.6-.46-.67.03-2.04,1.46-2.55.4-1.03-2.14,2.91-.48,2.91-.48,2.92,2.11-1.65,4.42-2.36,1.55-.22-.9-1.7-.45-1.36.37h0Z"/>
</svg>