<?xml version="1.0" encoding="UTF-8"?>
<svg id="Livello_3" data-name="Livello 3" xmlns="http://www.w3.org/2000/svg" viewBox="0 0 480 213.36">
  <defs>
    <style>
      .cls-1 {
        fill: none;
        stroke: #fff;
        stroke-miterlimit: 10;
        stroke-width: 4px;
      }
    </style>
  </defs>
  <path class="cls-1" d="M49.76,127.8c5.21-.11,10.32,1.28,15.39,2.48,9.94,2.35,20.05,4,30.23,4.93,18.34,1.67,36.47-4.28,54.04-9.8,5.9-1.85,11.73-3.97,17.77-5.31,9.43-2.09,19.21-2.26,28.63-4.39,7.16-1.62,13.97,2.7,21.26,3.55,17.88,2.06,32.35-14.74,49.44-20.38,15.19-5.01,31.97-1.4,47.91-2.82,3.11-.28,6.22-.55,9.32-.83,20.06-1.79,40.9,4,60.75,7.37,2.19.37,4.3-1.07,6.36-1.89,13.79-5.44,27.58-10.87,41.37-16.31"/>
</svg>